arm26_states
version=1
nRows=24
nColumns=17
inDegrees=yes

# SIMM Motion File Header:
name arm26_states
datacolumns 17
datarows 24
otherdata 1
range 0.28735424 0.31755437
endheader
time	/jointset/r_shoulder/r_shoulder_elev/value	/jointset/r_shoulder/r_shoulder_elev/speed	/jointset/r_elbow/r_elbow_flex/value	/jointset/r_elbow/r_elbow_flex/speed	/forceset/TRIlong/activation	/forceset/TRIlong/fiber_length	/forceset/TRIlat/activation	/forceset/TRIlat/fiber_length	/forceset/TRImed/activation	/forceset/TRImed/fiber_length	/forceset/BIClong/activation	/forceset/BIClong/fiber_length	/forceset/BICshort/activation	/forceset/BICshort/fiber_length	/forceset/BRA/activation	/forceset/BRA/fiber_length
      0.28735424	     -9.26537090	      7.30992624	     50.77141240	    108.12518774	      0.01001424	      0.15068549	      0.02395109	      0.09035472	      0.02267114	      0.08537573	      0.14468668	      0.13129820	      0.02749634	      0.12960715	      0.01020647	      0.08173816
      0.28792931	     -9.26116716	      7.56671811	     50.83359225	    107.26687056	      0.01001422	      0.15140668	      0.02400070	      0.09037800	      0.02271678	      0.08539902	      0.14476789	      0.13125464	      0.02749389	      0.12956432	      0.01020601	      0.08172254
      0.28821988	     -9.25896856	      7.68982154	     50.86475986	    106.97852807	      0.01001421	      0.15068097	      0.02402569	      0.09038968	      0.02273978	      0.08541070	      0.14480845	      0.13123273	      0.02749262	      0.12954279	      0.01020577	      0.08171469
      0.28858556	     -9.25615654	      7.85195595	     50.90387990	    106.42083800	      0.01001419	      0.15149205	      0.02405708	      0.09040433	      0.02276870	      0.08542535	      0.14485924	      0.13120522	      0.02749099	      0.12951577	      0.01020547	      0.08170485
      0.28891017	     -9.25360773	      7.98806102	     50.93842504	    106.10993561	      0.01001418	      0.15058765	      0.02408490	      0.09041727	      0.02279433	      0.08543830	      0.14490403	      0.13118087	      0.02748952	      0.12949186	      0.01020521	      0.08169614
      0.28923477	     -9.25101473	      8.13246386	     50.97286927	    105.57283554	      0.01001417	      0.15228930	      0.02411267	      0.09043016	      0.02281993	      0.08545119	      0.14494858	      0.13115659	      0.02748803	      0.12946802	      0.01020495	      0.08168747
      0.28955938	     -9.24837486	      8.26556763	     51.00713914	    105.31482872	      0.01001415	      0.15078425	      0.02414041	      0.09044299	      0.02284550	      0.08546403	      0.14499290	      0.13113236	      0.02748652	      0.12944425	      0.01020468	      0.08167882
      0.28988399	     -9.24569179	      8.40649937	     51.04132526	    104.84016346	      0.01001414	      0.15118588	      0.02416811	      0.09045578	      0.02287105	      0.08547681	      0.14503699	      0.13110819	      0.02748498	      0.12942055	      0.01020442	      0.08167020
      0.29037683	     -9.24154871	      8.61365919	     51.09299493	    104.27791929	      0.01001412	      0.15086442	      0.02421012	      0.09047511	      0.02290979	      0.08549615	      0.14510362	      0.13107159	      0.02748261	      0.12938467	      0.01020402	      0.08165716
      0.29104139	     -9.23582446	      8.89811267	     51.16229332	    103.34189926	      0.01001409	      0.15105822	      0.02426665	      0.09050102	      0.02296197	      0.08552206	      0.14519284	      0.13102243	      0.02747934	      0.12933650	      0.01020348	      0.08163966
      0.29205852	     -9.22677393	      9.32431812	     51.26740540	    102.06447805	      0.01001405	      0.15102826	      0.02435300	      0.09054035	      0.02304170	      0.08556141	      0.14532818	      0.13094757	      0.02747420	      0.12926320	      0.01020266	      0.08161304
      0.29427973	     -9.20606265	     10.24773996	     51.49411218	     99.16723296	      0.01001396	      0.15104418	      0.02454044	      0.09062512	      0.02321481	      0.08564618	      0.14561786	      0.13078536	      0.02746240	      0.12910457	      0.01020086	      0.08155550
      0.29580861	     -9.19039511	     10.86843077	     51.64572674	     97.10668257	      0.01001390	      0.15127046	      0.02466677	      0.09068183	      0.02333134	      0.08570289	      0.14580434	      0.13067559	      0.02745324	      0.12899748	      0.01019965	      0.08151670
      0.29733748	     -9.17377861	     11.46869013	     51.79419097	     95.29100996	      0.01001384	      0.15121688	      0.02479200	      0.09073740	      0.02344681	      0.08575845	      0.14598470	      0.13056714	      0.02744338	      0.12889187	      0.01019845	      0.08147861
      0.29941489	     -9.14995352	     12.27274565	     51.99214877	     92.66136292	      0.01001376	      0.15127745	      0.02496112	      0.09081130	      0.02360269	      0.08583234	      0.14622322	      0.13042160	      0.02742907	      0.12875044	      0.01019684	      0.08142777
      0.30165997	     -9.12240024	     13.11676654	     52.20018084	     89.82917749	      0.01001368	      0.15144079	      0.02514277	      0.09088907	      0.02377008	      0.08591011	      0.14647345	      0.13026691	      0.02741226	      0.12860051	      0.01019513	      0.08137396
      0.30390504	     -9.09295206	     13.92722689	     52.40185443	     87.20984999	      0.01001359	      0.15145207	      0.02532117	      0.09096440	      0.02393521	      0.08598542	      0.14671041	      0.13011504	      0.02739404	      0.12845375	      0.01019343	      0.08132158
      0.30551413	     -9.07054201	     14.48986552	     52.54218222	     85.26994606	      0.01001353	      0.15163920	      0.02544702	      0.09101672	      0.02405222	      0.08603772	      0.14687183	      0.13000823	      0.02737999	      0.12835087	      0.01019223	      0.08128503
      0.30712321	     -9.04722663	     15.03320647	     52.67938855	     83.53910522	      0.01001348	      0.15161838	      0.02557205	      0.09106795	      0.02416867	      0.08608892	      0.14702910	      0.12990286	      0.02736525	      0.12824962	      0.01019103	      0.08124914
      0.30962662	     -9.00959231	     15.85914090	     52.88852140	     80.72405697	      0.01001339	      0.15169250	      0.02576565	      0.09114586	      0.02434924	      0.08616677	      0.14726879	      0.12974119	      0.02734127	      0.12809460	      0.01018917	      0.08119440
      0.31170038	     -8.97670427	     16.51427267	     53.05592367	     78.41998781	      0.01001331	      0.15184013	      0.02592427	      0.09120828	      0.02449725	      0.08622916	      0.14745986	      0.12961008	      0.02731990	      0.12796930	      0.01018765	      0.08115025
      0.31377414	     -8.94245764	     17.14163487	     53.21854784	     76.30228974	      0.01001324	      0.15185191	      0.02608137	      0.09126890	      0.02464376	      0.08628972	      0.14764497	      0.12948128	      0.02729721	      0.12784658	      0.01018615	      0.08110726
      0.31566426	     -8.91005794	     17.69245636	     53.36276813	     74.31669353	      0.01001317	      0.15199844	      0.02622372	      0.09132255	      0.02477646	      0.08634332	      0.14780983	      0.12936599	      0.02727535	      0.12773706	      0.01018482	      0.08106907
      0.31755437	     -8.87661712	     18.22064446	     53.50323540	     72.50737282	      0.01001311	      0.15200537	      0.02636559	      0.09137485	      0.02490869	      0.08639559	      0.14797219	      0.12925258	      0.02725244	      0.12762961	      0.01018350	      0.08103169
